<svg xmlns="http://www.w3.org/2000/svg" xmlns:xlink="http://www.w3.org/1999/xlink" width="1000" zoomAndPan="magnify" viewBox="0 0 750 749.999995" height="1000" preserveAspectRatio="xMidYMid meet" version="1.0"><defs><clipPath id="086fab3e27"><path d="M 0 430.949219 L 750 430.949219 L 750 750 L 0 750 Z M 0 430.949219 " clip-rule="nonzero"/></clipPath><clipPath id="9166e9e165"><path d="M 375 430.949219 C 146.371094 430.949219 -38.96875 616.289062 -38.96875 844.917969 C -38.96875 1073.550781 146.371094 1258.890625 375 1258.890625 C 603.628906 1258.890625 788.96875 1073.550781 788.96875 844.917969 C 788.96875 616.289062 603.628906 430.949219 375 430.949219 Z M 375 430.949219 " clip-rule="nonzero"/></clipPath><clipPath id="95ad1953b2"><path d="M 0 0.949219 L 750 0.949219 L 750 320 L 0 320 Z M 0 0.949219 " clip-rule="nonzero"/></clipPath><clipPath id="26762332d1"><path d="M 375 0.949219 C 146.371094 0.949219 -38.96875 186.289062 -38.96875 414.917969 C -38.96875 643.550781 146.371094 828.890625 375 828.890625 C 603.628906 828.890625 788.96875 643.550781 788.96875 414.917969 C 788.96875 186.289062 603.628906 0.949219 375 0.949219 Z M 375 0.949219 " clip-rule="nonzero"/></clipPath><clipPath id="935b9aff51"><rect x="0" width="750" y="0" height="320"/></clipPath><clipPath id="8c8c5680ad"><path d="M 362 93.070312 L 469 93.070312 L 469 261 L 362 261 Z M 362 93.070312 " clip-rule="nonzero"/></clipPath><clipPath id="5d11cc58f6"><path d="M 157.175781 272 L 237 272 L 237 400.570312 L 157.175781 400.570312 Z M 157.175781 272 " clip-rule="nonzero"/></clipPath><clipPath id="6f6a321cbd"><path d="M 507 282 L 592.925781 282 L 592.925781 384 L 507 384 Z M 507 282 " clip-rule="nonzero"/></clipPath><clipPath id="f81b88e223"><path d="M 0 455.011719 L 750 455.011719 L 750 750 L 0 750 Z M 0 455.011719 " clip-rule="nonzero"/></clipPath><clipPath id="1e25928506"><path d="M 375 455.011719 C 146.371094 455.011719 -38.96875 640.355469 -38.96875 868.984375 C -38.96875 1097.613281 146.371094 1282.953125 375 1282.953125 C 603.628906 1282.953125 788.96875 1097.613281 788.96875 868.984375 C 788.96875 640.355469 603.628906 455.011719 375 455.011719 Z M 375 455.011719 " clip-rule="nonzero"/></clipPath><clipPath id="b142a0dad0"><path d="M 0 0.0117188 L 750 0.0117188 L 750 295 L 0 295 Z M 0 0.0117188 " clip-rule="nonzero"/></clipPath><clipPath id="03c4f1e8c7"><path d="M 375 0.0117188 C 146.371094 0.0117188 -38.96875 185.355469 -38.96875 413.984375 C -38.96875 642.613281 146.371094 827.953125 375 827.953125 C 603.628906 827.953125 788.96875 642.613281 788.96875 413.984375 C 788.96875 185.355469 603.628906 0.0117188 375 0.0117188 Z M 375 0.0117188 " clip-rule="nonzero"/></clipPath><clipPath id="5a3c9cdbcb"><rect x="0" width="750" y="0" height="295"/></clipPath><clipPath id="01ee529bbd"><path d="M 0 484.394531 L 750 484.394531 L 750 750 L 0 750 Z M 0 484.394531 " clip-rule="nonzero"/></clipPath><clipPath id="3c797a0c24"><path d="M 375 484.394531 C 146.371094 484.394531 -38.96875 669.734375 -38.96875 898.363281 C -38.96875 1126.992188 146.371094 1312.335938 375 1312.335938 C 603.628906 1312.335938 788.96875 1126.992188 788.96875 898.363281 C 788.96875 669.734375 603.628906 484.394531 375 484.394531 Z M 375 484.394531 " clip-rule="nonzero"/></clipPath><clipPath id="7e6f4aa12a"><path d="M 0 0.394531 L 750 0.394531 L 750 266 L 0 266 Z M 0 0.394531 " clip-rule="nonzero"/></clipPath><clipPath id="a8b377e720"><path d="M 375 0.394531 C 146.371094 0.394531 -38.96875 185.734375 -38.96875 414.363281 C -38.96875 642.992188 146.371094 828.335938 375 828.335938 C 603.628906 828.335938 788.96875 642.992188 788.96875 414.363281 C 788.96875 185.734375 603.628906 0.394531 375 0.394531 Z M 375 0.394531 " clip-rule="nonzero"/></clipPath><clipPath id="1ae14c09e1"><rect x="0" width="750" y="0" height="266"/></clipPath></defs><rect x="-75" width="900" fill="#ffffff" y="-74.999999" height="899.999994" fill-opacity="1"/><rect x="-75" width="900" fill="#181818" y="-74.999999" height="899.999994" fill-opacity="1"/><g clip-path="url(#086fab3e27)"><g clip-path="url(#9166e9e165)"><g transform="matrix(1, 0, 0, 1, 0, 430)"><g clip-path="url(#935b9aff51)"><g clip-path="url(#95ad1953b2)"><g clip-path="url(#26762332d1)"><path fill="#ffffff" d="M -38.96875 0.949219 L 788.96875 0.949219 L 788.96875 828.890625 L -38.96875 828.890625 Z M -38.96875 0.949219 " fill-opacity="1" fill-rule="nonzero"/></g></g></g></g></g></g><path fill="#ffffff" d="M 385.140625 251.511719 C 371.964844 253.535156 359.144531 255.597656 346.296875 257.464844 C 326.824219 260.292969 315.96875 271.890625 312.832031 290.824219 C 310.609375 304.257812 308.71875 317.78125 307.476562 331.339844 C 306.003906 347.375 305.390625 363.488281 303.804688 379.675781 C 303.152344 373.070312 302.484375 366.464844 301.847656 359.855469 C 299.898438 339.519531 297.988281 319.1875 295.988281 298.855469 C 295.746094 296.402344 295 294.003906 294.601562 291.5625 C 291.441406 272.382812 280.105469 261.339844 261.113281 258.054688 C 251.960938 256.472656 242.757812 255.1875 233.585938 253.722656 C 230.289062 253.195312 227.011719 252.546875 222.300781 251.695312 C 236.828125 249.875 249.808594 248.332031 262.769531 246.609375 C 281.496094 244.121094 292.378906 233.085938 295.320312 214.796875 C 298.015625 198.015625 299.785156 181.078125 301.679688 164.175781 C 302.773438 154.414062 303.304688 144.585938 304.191406 133.542969 C 305.9375 152.707031 307.292969 170.613281 309.296875 188.445312 C 310.4375 198.574219 312.398438 208.632812 314.433594 218.632812 C 317.660156 234.480469 327.917969 243.402344 343.535156 245.9375 C 357.273438 248.171875 371.132812 249.664062 385.140625 251.511719 Z M 385.140625 251.511719 " fill-opacity="1" fill-rule="nonzero"/><g clip-path="url(#8c8c5680ad)"><path fill="#ffffff" d="M 417.699219 93.0625 C 419.472656 109.492188 420.691406 124.617188 422.816406 139.621094 C 426.308594 164.289062 432.972656 167.996094 453.515625 171.066406 C 458.367188 171.792969 463.261719 172.234375 468.398438 174.195312 C 466.609375 174.667969 464.84375 175.257812 463.03125 175.59375 C 455.742188 176.941406 448.328125 177.765625 441.179688 179.628906 C 433.507812 181.628906 427.976562 186.804688 425.992188 194.574219 C 423.855469 202.941406 422.308594 211.484375 421.011719 220.027344 C 419.992188 226.75 419.507812 233.582031 419.207031 240.382812 C 418.914062 247.179688 419.144531 253.996094 419.144531 260.800781 C 418.535156 260.824219 417.933594 260.851562 417.328125 260.878906 C 416.035156 246.609375 414.949219 232.316406 413.371094 218.078125 C 412.59375 211.042969 411.210938 204.035156 409.566406 197.140625 C 407.363281 187.894531 401.257812 181.886719 392.105469 179.691406 C 383.109375 177.539062 373.925781 176.183594 362.746094 174.089844 C 367.367188 173.226562 370.226562 172.585938 373.117188 172.171875 C 378.324219 171.425781 383.566406 170.917969 388.769531 170.121094 C 401.238281 168.210938 408.9375 161.003906 411.207031 148.632812 C 412.9375 139.21875 414.132812 129.695312 415.246094 120.179688 C 416.253906 111.578125 416.828125 102.921875 417.699219 93.0625 Z M 417.699219 93.0625 " fill-opacity="1" fill-rule="nonzero"/></g><g clip-path="url(#5d11cc58f6)"><path fill="#ffffff" d="M 157.632812 331.335938 C 163.699219 330.367188 169.789062 329.523438 175.832031 328.398438 C 184.394531 326.804688 189.726562 321.382812 191.289062 313.058594 C 193.171875 303.058594 194.242188 292.902344 195.535156 282.800781 C 195.960938 279.472656 195.980469 276.089844 197.34375 272.597656 C 197.882812 276.78125 198.382812 280.96875 198.96875 285.148438 C 200.207031 294.023438 201.304688 302.917969 202.808594 311.746094 C 204.453125 321.378906 210.179688 327.144531 220.015625 328.585938 C 225.632812 329.410156 231.234375 330.324219 236.9375 332.292969 C 234.988281 332.808594 233.058594 333.433594 231.082031 333.808594 C 229.261719 334.15625 227.378906 334.148438 225.546875 334.441406 C 208.96875 337.097656 203.207031 342.996094 201.058594 359.78125 C 200.191406 366.53125 199.617188 373.320312 198.933594 380.089844 C 198.246094 386.855469 197.589844 393.625 196.386719 400.398438 C 195.46875 389.691406 194.671875 378.976562 193.589844 368.285156 C 193.058594 363.070312 192.273438 357.847656 191.113281 352.738281 C 189.0625 343.746094 183.355469 338.125 174.292969 336.171875 C 168.679688 334.957031 163.007812 334 157.367188 332.925781 C 157.453125 332.398438 157.542969 331.863281 157.632812 331.335938 Z M 157.632812 331.335938 " fill-opacity="1" fill-rule="nonzero"/></g><g clip-path="url(#6f6a321cbd)"><path fill="#ffffff" d="M 561.9375 326.941406 C 560.152344 322.976562 558.367188 319.011719 556.578125 315.042969 C 561.15625 323.777344 568.445312 327.585938 577.789062 328.652344 C 583.269531 329.28125 588.699219 330.410156 592.609375 331.054688 C 586.625 331.949219 579.125 333.070312 571.625 334.1875 C 571.46875 334.007812 571.3125 333.824219 571.152344 333.644531 C 571.386719 333.75 571.625 333.851562 571.863281 333.957031 C 570.703125 334.699219 569.550781 335.441406 568.394531 336.183594 C 568.394531 336.183594 568.578125 336.355469 568.578125 336.355469 C 562.1875 333.941406 556.390625 335.851562 554.363281 342.988281 C 551.953125 351.46875 551.199219 360.460938 550.199219 369.285156 C 549.660156 374.054688 550.105469 378.941406 550.105469 383.769531 C 549.394531 383.824219 548.679688 383.882812 547.972656 383.9375 C 547.308594 378.421875 546.644531 372.910156 545.976562 367.394531 C 545.269531 361.570312 544.683594 355.71875 543.804688 349.917969 C 542.5 341.339844 537.742188 335.894531 528.941406 334.46875 C 522.058594 333.351562 515.164062 332.304688 507.492188 331.109375 C 515.3125 330.070312 522.332031 329.121094 529.355469 328.210938 C 537.429688 327.164062 542.386719 322.535156 543.730469 314.667969 C 545.546875 304.019531 546.816406 293.277344 549.222656 282.402344 C 549.632812 287.527344 549.882812 292.667969 550.5 297.769531 C 551.265625 304.171875 552.039062 310.605469 553.363281 316.90625 C 554.359375 321.625 557.082031 325.390625 562.171875 326.734375 C 562.875 326.949219 563.582031 327.164062 562.851562 326.941406 C 563.546875 326.941406 562.742188 326.941406 561.9375 326.941406 Z M 561.9375 326.941406 " fill-opacity="1" fill-rule="nonzero"/></g><g clip-path="url(#f81b88e223)"><g clip-path="url(#1e25928506)"><g transform="matrix(1, 0, 0, 1, 0, 455)"><g clip-path="url(#5a3c9cdbcb)"><g clip-path="url(#b142a0dad0)"><g clip-path="url(#03c4f1e8c7)"><path fill="#fafafa" d="M -38.96875 0.0117188 L 788.96875 0.0117188 L 788.96875 827.953125 L -38.96875 827.953125 Z M -38.96875 0.0117188 " fill-opacity="1" fill-rule="nonzero"/></g></g></g></g></g></g><g clip-path="url(#01ee529bbd)"><g clip-path="url(#3c797a0c24)"><g transform="matrix(1, 0, 0, 1, 0, 484)"><g clip-path="url(#1ae14c09e1)"><g clip-path="url(#7e6f4aa12a)"><g clip-path="url(#a8b377e720)"><path fill="#f1f1f1" d="M -38.96875 0.394531 L 788.96875 0.394531 L 788.96875 828.335938 L -38.96875 828.335938 Z M -38.96875 0.394531 " fill-opacity="1" fill-rule="nonzero"/></g></g></g></g></g></g></svg>